# File created by Blade
# Date/Time:  Thu Jan 22 19:13:14 2015
# Frame Rate: 120.000 fps
#------------------------------------------------------
:FULLY-SPECIFIED
:DEGREES
2200
root 1.456605 25.270505 -8.475015 74.432603 -56.863109 -20.445498
RightUpLeg -110.880572 6.834556 7.938011
RightLeg 60.194753 -0.000000 -0.000000
RightFoot -11.511236 12.396788 14.614481
RightToeBase -10.440153 -0.000000 0.000000
LeftUpLeg -20.571777 46.166884 20.926449
LeftLeg 8.593388 -0.000000 -0.000000
LeftFoot -31.817797 6.241312 -26.153864
LeftToeBase 12.097638 -0.000000 -0.000000
Spine 34.758359 -34.633142 -13.253008
RightShoulder -27.120051 -17.116958 -17.849780
RightArm -10.553451 51.019737 44.917416
RightForeArm 26.343858 -0.000000 17.113769
RightHand 22.015717 -0.000000 -16.801378
RightHandThumb1 -24.326973 -0.000000 -32.862282
LeftShoulder -0.685695 -11.558553 26.048622
LeftArm 40.269307 -4.567377 -59.614280
LeftForeArm 23.545775 -0.000000 6.897838
LeftHand -5.717403 -0.000000 14.093725
LeftHandThumb1 -26.253704 0.000000 33.147579
Head -11.767336 -51.250965 20.509339
2201
root 1.475787 25.276776 -8.482330 73.987791 -56.955367 -20.033183
RightUpLeg -110.847138 6.652236 7.759871
RightLeg 60.235507 -0.000000 -0.000000
RightFoot -11.771585 12.436346 14.724313
RightToeBase -11.513003 -0.000000 0.000000
LeftUpLeg -20.645906 46.260294 20.592404
LeftLeg 8.447872 -0.000000 -0.000000
LeftFoot -31.628980 6.186420 -25.892310
LeftToeBase 11.769460 -0.000000 -0.000000
Spine 34.650705 -34.604750 -13.290359
RightShoulder -27.042145 -17.151797 -17.828917
RightArm -10.383032 50.754337 45.360437
RightForeArm 26.107985 -0.000000 17.128448
RightHand 22.120127 -0.000000 -16.275560
RightHandThumb1 -24.326973 -0.000000 -32.862282
LeftShoulder -0.586834 -11.693903 26.032699
LeftArm 40.276768 -4.628297 -59.618081
LeftForeArm 22.985484 -0.000000 6.900739
LeftHand -5.619016 -0.000000 13.126887
LeftHandThumb1 -26.253704 0.000000 33.147579
Head -11.553666 -51.493005 20.316258
2202
root 1.495778 25.283655 -8.487201 73.583584 -57.056275 -19.684331
RightUpLeg -110.831476 6.486914 7.540341
RightLeg 60.311934 -0.000000 -0.000000
RightFoot -11.917903 12.376205 15.156193
RightToeBase -12.594052 -0.000000 0.000000
LeftUpLeg -20.682407 46.446591 20.256511
LeftLeg 8.264757 -0.000000 -0.000000
LeftFoot -31.424482 6.171837 -25.541976
LeftToeBase 11.569125 -0.000000 -0.000000
Spine 34.577235 -34.574435 -13.361616
RightShoulder -26.934482 -17.124936 -17.808414
RightArm -10.210541 50.435996 45.727490
RightForeArm 25.641591 -0.000000 17.139935
RightHand 22.169570 -0.000000 -16.021953
RightHandThumb1 -24.326973 -0.000000 -32.862282
LeftShoulder -0.536235 -11.943027 26.031650
LeftArm 40.178546 -4.610138 -59.555904
LeftForeArm 22.649719 -0.000000 6.945951
LeftHand -5.633772 -0.000000 12.625990
LeftHandThumb1 -26.253704 0.000000 33.147579
Head -11.397109 -51.614760 20.149878
2203
root 1.514931 25.290556 -8.491197 73.210741 -57.145065 -19.410562
RightUpLeg -110.779000 6.369376 7.339254
RightLeg 60.393933 -0.000000 -0.000000
RightFoot -12.177909 12.220204 15.150378
RightToeBase -13.486004 -0.000000 0.000000
LeftUpLeg -20.632168 46.578209 20.022933
LeftLeg 8.103186 -0.000000 -0.000000
LeftFoot -31.292877 6.245974 -25.190731
LeftToeBase 11.327054 -0.000000 -0.000000
Spine 34.546979 -34.453897 -13.391988
RightShoulder -26.887707 -17.034029 -17.775089
RightArm -10.129516 50.150675 45.947128
RightForeArm 25.505975 -0.000000 17.106402
RightHand 22.038537 0.000000 -16.575349
RightHandThumb1 -24.326973 -0.000000 -32.862282
LeftShoulder -0.462948 -12.049201 26.003141
LeftArm 40.245413 -4.787688 -59.579227
LeftForeArm 22.386334 -0.000000 7.084144
LeftHand -5.511156 0.000000 11.806435
LeftHandThumb1 -26.253704 0.000000 33.147579
Head -11.454374 -51.759537 20.113038
2204
root 1.535396 25.300138 -8.499117 72.873321 -57.143461 -19.162884
RightUpLeg -110.724108 6.257554 7.227139
RightLeg 60.462250 -0.000000 -0.000000
RightFoot -12.482976 12.028786 15.008419
RightToeBase -13.840484 -0.000000 0.000000
LeftUpLeg -20.638288 46.628997 19.884553
LeftLeg 8.015719 -0.000000 -0.000000
LeftFoot -31.260800 6.460141 -24.833811
LeftToeBase 11.048774 -0.000000 -0.000000
Spine 34.516191 -34.409691 -13.317155
RightShoulder -26.820841 -17.040178 -17.767168
RightArm -9.976969 50.062208 46.233816
RightForeArm 25.147679 -0.000000 17.138131
RightHand 21.987505 -0.000000 -16.287240
RightHandThumb1 -24.326973 -0.000000 -32.862282
LeftShoulder -0.412530 -12.306157 25.969125
LeftArm 40.148605 -4.890385 -59.583031
LeftForeArm 22.580056 0.000000 7.238074
LeftHand -5.521556 -0.000000 11.144461
LeftHandThumb1 -26.253704 0.000000 33.147579
Head -11.642207 -51.670009 20.041204
